<svg xmlns="http://www.w3.org/2000/svg" viewBox="0 0 512 512" style="height: 512px; width: 512px;"><defs><radialGradient id="gradient-0"><stop offset="0%" stop-color="#4a90e2" stop-opacity="1"></stop><stop offset="100%" stop-color="#00a3ff" stop-opacity="1"></stop></radialGradient></defs><circle cx="256" cy="256" r="251" fill="url(#gradient-0)" stroke="#fff" stroke-opacity="1" stroke-width="5"></circle><g class="" transform="translate(0,0)" style="touch-action: none;"><path d="M255.563 19.313c-8.59.207-18.054 4.34-28.22 12.906L153.75 137.874l77.625 36.75-35.25-31.906c49.398-102.846 72.005-100.992 117.78 0l-34.842 31.56 77.343-36.405-73.78-105.906c-9.694-9.432-18.4-12.867-27.063-12.657zm82.593 147.812L258.75 204.5l-4 1.875-3.97-1.875-76.56-36.25L69.343 291.094l18.75 14.125 66.03 15.06 28.94-118.217 17.217 8.156-69.53 283.905h92.906l15.594-265.47 15.594 7.376 17.75-8.374 15.656 266.47h92.906l-69.75-284.72 17.25-8.125 29.22 119.25 71.687-16.405L444 291.095l-105.844-123.97zM103.094 327.813c-1.266 3.364-1.97 7.008-1.97 10.812 0 16.984 13.767 30.75 30.75 30.75 3.754 0 7.363-.676 10.69-1.906l7.092-29.033-46.562-10.625zm306.812 0l-47.562 10.875 6.906 28.28c3.65 1.534 7.665 2.407 11.875 2.407 16.984 0 30.75-13.766 30.75-30.75 0-3.81-.706-7.448-1.97-10.813z" fill="#fff" fill-opacity="1"></path></g><g class="" transform="translate(256,256)" style="touch-action: none;"><g><circle cx="128" cy="128" r="128" fill="#f8e71c" fill-opacity="1"></circle><circle stroke="#fff" stroke-opacity="1" fill="#f8e71c" fill-opacity="1" stroke-width="18" cx="128" cy="128" r="101"></circle><path fill="#fff" fill-opacity="1" d="M150.094 59.7L139.07 78.695c-7.27-1.615-15.652-1.322-22.142.234l-10.791-19.054L80.33 74.858 91.5 94.554a48.133 48.133 0 0 0-9.938 18.63l-23.52.105-.197 29.834 25.035-.119a49.2 49.2 0 0 0 9.666 15.859L79.5 181.36l25.61 14.852 13.108-22.596a47.62 47.62 0 0 0 18.542.3l13.102 22.58 25.623-15.283c-4.08-7.22-8.161-14.44-12.244-21.66a48.554 48.554 0 0 0 10.252-16.378l24.464-.092.198-29.834-23.235-.156a48.717 48.717 0 0 0-10.387-19.304l11.172-19.24zm-19.705 44.292c12.71 1.043 22.352 12.16 21.787 25.043-.584 13.297-11.839 23.598-25.137 23.015-13.3-.582-23.855-11.836-23.018-25.121.905-14.35 13.161-24.021 26.368-22.937z"></path></g></g></svg>